<svg width="20" height="25" viewBox="0 0 20 25" fill="none" xmlns="http://www.w3.org/2000/svg">
<path fill-rule="evenodd" clip-rule="evenodd" d="M9.99998 0.458252C6.9394 0.458252 4.45831 2.93934 4.45831 5.99992C4.45831 9.0605 6.9394 11.5416 9.99998 11.5416C13.0606 11.5416 15.5416 9.0605 15.5416 5.99992C15.5416 2.93934 13.0606 0.458252 9.99998 0.458252ZM6.20831 5.99992C6.20831 3.90584 7.9059 2.20825 9.99998 2.20825C12.0941 2.20825 13.7916 3.90584 13.7916 5.99992C13.7916 8.094 12.0941 9.79159 9.99998 9.79159C7.9059 9.79159 6.20831 8.094 6.20831 5.99992Z" fill="#808080"/>
<path fill-rule="evenodd" clip-rule="evenodd" d="M6.49998 13.2916C3.4394 13.2916 0.958313 15.7727 0.958313 18.8333C0.958313 21.8938 3.4394 24.3749 6.49998 24.3749H13.5C16.5606 24.3749 19.0416 21.8938 19.0416 18.8333C19.0416 15.7727 16.5606 13.2916 13.5 13.2916H6.49998ZM2.70831 18.8333C2.70831 16.7392 4.4059 15.0416 6.49998 15.0416H13.5C15.5941 15.0416 17.2916 16.7392 17.2916 18.8333C17.2916 20.9273 15.5941 22.6249 13.5 22.6249H6.49998C4.4059 22.6249 2.70831 20.9273 2.70831 18.8333Z" fill="#808080"/>
</svg>
